<?xml version="1.0" encoding="UTF-8"?>
<svg id="Capa_2" data-name="Capa 2" xmlns="http://www.w3.org/2000/svg" viewBox="0 0 6.84 7.15">
  <g id="Capa_4" data-name="Capa 4">
    <path d="M6.66,5.52l-.73-.51-.65-.45c-.07-.05-.15-.07-.22-.07-.12,0-.24.06-.32.16l-.4.54h0s-.09.07-.14.07c-.03,0-.06,0-.09-.02-.07-.04-.14-.08-.22-.13-.08-.05-.16-.1-.26-.17-.2-.15-.45-.37-.81-.74-.35-.37-.56-.64-.7-.84-.14-.21-.21-.36-.29-.5-.02-.03-.02-.06-.02-.09,0-.05.02-.11.07-.14h0s.52-.42.52-.42c.1-.08.16-.21.16-.33,0-.08-.02-.16-.07-.23l-.42-.66L1.56.19C1.48.07,1.36,0,1.23,0c-.07,0-.14.02-.21.06L.44.42c-.18.11-.31.29-.37.5h0C.03,1.07,0,1.26,0,1.49c0,.38.09.88.38,1.48.29.6.78,1.32,1.57,2.15.8.83,1.48,1.34,2.06,1.64.58.3,1.05.4,1.41.4.21,0,.39-.03.53-.07h0c.2-.06.37-.2.48-.39l.35-.61c.04-.07.06-.14.06-.22,0-.14-.06-.27-.18-.35ZM6.25,6.57c-.08.14-.2.24-.35.28t0,0c-.12.03-.28.06-.47.06-.33,0-.76-.08-1.32-.37-.55-.29-1.22-.78-2-1.6-.78-.82-1.25-1.51-1.53-2.09-.28-.58-.35-1.03-.35-1.37,0-.2.03-.37.06-.49t0,0c.04-.15.14-.28.27-.36h0s.58-.36.58-.36c.03-.02.06-.03.09-.03.06,0,.11.03.15.08l.5.79.42.66s.03.07.03.1c0,.05-.02.11-.07.15l-.52.42c-.1.08-.16.21-.16.33,0,.07.02.14.05.2h0c.07.14.15.3.3.52.15.22.37.5.73.87.36.38.63.61.84.76.21.16.37.24.5.31h0c.06.04.13.05.19.05.12,0,.24-.06.32-.16l.4-.54s.09-.07.14-.07c.03,0,.07,0,.1.03l.65.45.73.51c.05.04.08.09.08.15,0,.03,0,.06-.02.09l-.35.61h0Z"/>
  </g>
</svg>