<?xml version="1.0" encoding="UTF-8"?>
<svg id="Capa_2" data-name="Capa 2" xmlns="http://www.w3.org/2000/svg" xmlns:xlink="http://www.w3.org/1999/xlink" viewBox="0 0 19.6 19.6">
  <defs>
    <style>
      .cls-1 {
        fill: #fff;
      }

      .cls-2 {
        filter: url(#drop-shadow-1);
      }

      .cls-3 {
        fill: none;
        stroke: #b2dcd9;
        stroke-miterlimit: 10;
        stroke-width: .25px;
      }

      .cls-4 {
        fill: #2c5097;
      }
    </style>
    <filter id="drop-shadow-1" x="-6.72" y="-6.73" width="33" height="33" filterUnits="userSpaceOnUse">
      <feOffset dx="0" dy="0"/>
      <feGaussianBlur result="blur" stdDeviation="2"/>
      <feFlood flood-color="#000" flood-opacity=".15"/>
      <feComposite in2="blur" operator="in"/>
      <feComposite in="SourceGraphic"/>
    </filter>
  </defs>
  <g id="Capa_4" data-name="Capa 4">
    <g class="cls-2">
      <path class="cls-4" d="M9.8.15c5.34,0,9.68,4.33,9.68,9.67s-4.33,9.68-9.68,9.68S.12,15.17.12,9.82,4.46.15,9.8.15h0Z"/>
      <path class="cls-1" d="M14.51,4.53H5.09c-.32,0-.58.26-.58.59v9.41c0,.32.26.58.58.58h5.07v-4.1h-1.39v-1.59h1.38v-1.18c0-1.37.83-2.11,2.05-2.11.41,0,.83.02,1.23.06v1.43h-.85c-.66,0-.79.32-.79.78v1.02h1.58l-.21,1.59h-1.37v4.1h2.7c.32,0,.58-.26.58-.59V5.12c0-.32-.26-.58-.58-.59h0Z"/>
      <path class="cls-3" d="M9.8.12c5.34,0,9.68,4.33,9.68,9.68s-4.33,9.68-9.68,9.68S.12,15.14.12,9.8,4.46.12,9.8.12h0Z"/>
    </g>
  </g>
</svg>