<?xml version="1.0" encoding="UTF-8"?>
<svg id="Capa_2" data-name="Capa 2" xmlns="http://www.w3.org/2000/svg" viewBox="0 0 19.6 19.6">
  <defs>
    <style>
      .cls-1 {
        fill: #fff;
      }

      .cls-2 {
        fill: none;
        stroke: #b2dcd9;
        stroke-miterlimit: 10;
        stroke-width: .25px;
      }

      .cls-3 {
        fill: #0371b4;
      }
    </style>
  </defs>
  <g id="Capa_4" data-name="Capa 4">
    <g>
      <path class="cls-3" d="M9.8.13c5.34,0,9.68,4.34,9.68,9.68s-4.34,9.67-9.68,9.67S.12,15.15.12,9.8,4.45.13,9.8.13h0Z"/>
      <path class="cls-1" d="M5.88,4.33c.72,0,1.3.59,1.3,1.3s-.58,1.3-1.3,1.3-1.3-.59-1.3-1.3.58-1.3,1.3-1.3h0ZM4.75,7.92h2.25v7.22h-2.25v-7.22h0Z"/>
      <path class="cls-1" d="M8.41,7.92h2.15v.99h.04c.44-.76,1.26-1.2,2.13-1.17,2.27,0,2.69,1.5,2.69,3.44v3.96h-2.25v-3.51c0-.84-.01-1.92-1.17-1.92s-1.34.91-1.34,1.85v3.57h-2.25v-7.22h0Z"/>
      <path class="cls-2" d="M9.8.12c5.34,0,9.68,4.33,9.68,9.68s-4.33,9.68-9.68,9.68S.12,15.14.12,9.8,4.46.12,9.8.12h0Z"/>
    </g>
  </g>
</svg>