<?xml version="1.0" encoding="UTF-8"?>
<svg id="Capa_2" data-name="Capa 2" xmlns="http://www.w3.org/2000/svg" xmlns:xlink="http://www.w3.org/1999/xlink" viewBox="0 0 19.94 19.6">
  <defs>
    <style>
      .cls-1 {
        fill: #fff;
      }

      .cls-2 {
        filter: url(#drop-shadow-1);
      }

      .cls-3 {
        fill: none;
        stroke: #b2dcd9;
        stroke-miterlimit: 10;
        stroke-width: .25px;
      }

      .cls-4 {
        fill: #0371b4;
      }
    </style>
    <filter id="drop-shadow-1" x="-6.99" y="-6.73" width="33" height="33" filterUnits="userSpaceOnUse">
      <feOffset dx="0" dy="0"/>
      <feGaussianBlur result="blur" stdDeviation="2"/>
      <feFlood flood-color="#000" flood-opacity=".15"/>
      <feComposite in2="blur" operator="in"/>
      <feComposite in="SourceGraphic"/>
    </filter>
  </defs>
  <g id="Capa_4" data-name="Capa 4">
    <g class="cls-2">
      <path class="cls-4" d="M10.27.07c5.34,0,9.68,4.34,9.68,9.68s-4.34,9.67-9.68,9.67S.59,15.09.59,9.75,4.92.07,10.27.07h0Z"/>
      <path class="cls-1" d="M6.11,4.3c.72,0,1.3.59,1.3,1.3s-.58,1.3-1.3,1.3-1.3-.59-1.3-1.3.58-1.3,1.3-1.3h0ZM4.99,7.89h2.25v7.22h-2.25v-7.22h0Z"/>
      <path class="cls-1" d="M8.65,7.89h2.15v.99h.04c.44-.76,1.26-1.2,2.13-1.17,2.27,0,2.69,1.5,2.69,3.44v3.96h-2.25v-3.51c0-.84-.01-1.92-1.17-1.92s-1.34.91-1.34,1.85v3.57h-2.25v-7.22h0Z"/>
      <path class="cls-3" d="M9.8.12c5.34,0,9.68,4.33,9.68,9.68s-4.33,9.68-9.68,9.68S.12,15.14.12,9.8,4.46.12,9.8.12h0Z"/>
    </g>
  </g>
</svg>