<?xml version="1.0" encoding="UTF-8"?>
<svg id="Capa_2" data-name="Capa 2" xmlns="http://www.w3.org/2000/svg" viewBox="0 0 8.14 5.77">
  <g id="Capa_4" data-name="Capa 4">
    <path d="M8.08.42h0s0-.02,0-.02c-.03-.06-.07-.12-.12-.17-.06-.07-.13-.12-.21-.16-.08-.04-.17-.06-.26-.07h0s0,0,0,0h0s0,0,0,0h0s-.02,0-.02,0h0s-6.73,0-6.73,0h0s-.02,0-.02,0h0s0,0,0,0h0s0,0,0,0h0s0,0,0,0c-.18.01-.35.1-.47.23-.05.05-.09.11-.12.17v.02s0,0,0,0c-.04.09-.06.18-.06.28v4.35c0,.39.32.71.71.71h6.72c.39,0,.71-.32.71-.71V.71c0-.1-.02-.2-.06-.28ZM.41.32c.06-.04.12-.07.19-.09h0s0,0,0,0c.03,0,.06,0,.09-.01h6.75s.06,0,.09,0h0s0,0,0,0c.07.02.14.05.19.09h0s.09.08.12.13c-.02.06-.05.11-.1.15l-3.39,3.36c-.16.16-.42.16-.59,0L.39.6s-.08-.09-.1-.15c.03-.05.07-.1.12-.13ZM.22,5.06V.74s.01.01.02.02l2.4,2.38L.35,5.39c-.08-.09-.13-.2-.13-.33ZM7.43,5.55H.71c-.06,0-.12-.01-.18-.03l2.25-2.23.84.83c.25.24.65.24.89,0l.85-.84,2.26,2.24c-.06.02-.12.04-.19.04ZM7.93,5.06c0,.12-.05.23-.12.32l-2.28-2.26L7.91.75s.01-.01.02-.02v4.32Z"/>
  </g>
</svg>