<?xml version="1.0" encoding="UTF-8"?>
<svg id="Capa_2" data-name="Capa 2" xmlns="http://www.w3.org/2000/svg" viewBox="0 0 6.61 8.7">
  <g id="Capa_4" data-name="Capa 4">
    <path d="M5.64.96c-.63-.62-1.45-.96-2.34-.96S1.59.34.97.96c-.62.62-.97,1.44-.97,2.32,0,.66.2,1.32.57,1.84l2.04,3.11c.22.32.46.49.71.49h.01c.24,0,.47-.17.68-.49l2.04-3.1c.37-.52.57-1.17.57-1.84,0-.87-.34-1.7-.97-2.32ZM5.84,4.97l-2.04,3.11c-.11.17-.28.37-.47.38-.2,0-.39-.2-.51-.38L.77,4.97c-.34-.48-.52-1.08-.52-1.7,0-.81.32-1.57.9-2.14C1.72.56,2.49.25,3.3.25s1.58.31,2.16.89c.58.57.89,1.33.89,2.14,0,.61-.19,1.21-.52,1.69ZM3.3,1.42c-1.03,0-1.87.83-1.87,1.85s.84,1.85,1.87,1.85,1.87-.83,1.87-1.85-.84-1.85-1.87-1.85ZM3.3,4.88c-.89,0-1.62-.72-1.62-1.61s.73-1.61,1.62-1.61,1.62.72,1.62,1.61-.73,1.61-1.62,1.61Z"/>
  </g>
</svg>