<?xml version="1.0" encoding="UTF-8"?>
<svg id="Capa_2" data-name="Capa 2" xmlns="http://www.w3.org/2000/svg" viewBox="0 0 8 8">
  <g id="Capa_4" data-name="Capa 4">
    <path d="M4,0C1.79,0,0,1.79,0,4s1.79,4,4,4,4-1.79,4-4S6.21,0,4,0ZM3.31.28c-.4.34-.73.98-.93,1.79H.74C1.29,1.15,2.22.48,3.31.28ZM.63,2.28h0s1.69.01,1.69.01c-.1.49-.16,1.03-.17,1.6H.22c.02-.58.16-1.13.41-1.61ZM.63,5.72c-.25-.49-.4-1.03-.41-1.61h1.93c0,.57.07,1.11.17,1.6H.63ZM.74,5.93h1.63c.2.81.53,1.45.93,1.79-1.09-.2-2.01-.87-2.56-1.79ZM3.89,7.77c-.54-.09-1.02-.81-1.29-1.85h1.29v1.85ZM3.89,5.71h-1.34c-.11-.49-.17-1.03-.18-1.6h1.53v1.6ZM3.89,3.89h-1.53c0-.57.07-1.11.18-1.6h1.34v1.6ZM3.89,2.07h-1.29c.27-1.03.75-1.76,1.29-1.85v1.85ZM7.37,2.28c.25.49.4,1.03.41,1.61h-1.93c0-.57-.07-1.11-.17-1.6h1.69ZM7.26,2.07h-1.63c-.2-.81-.53-1.45-.94-1.79,1.09.2,2.01.87,2.56,1.79ZM4.11.23c.54.09,1.02.81,1.29,1.85h-1.29V.23ZM4.11,2.29h1.34c.11.49.17,1.03.18,1.6h-1.53v-1.6ZM4.11,4.11h1.53c0,.57-.07,1.11-.18,1.6h-1.34v-1.6ZM4.11,7.77v-1.85h1.29c-.27,1.03-.75,1.76-1.29,1.85ZM4.69,7.72c.4-.34.73-.98.94-1.79h1.63c-.55.92-1.47,1.59-2.56,1.79ZM7.37,5.72h0s-1.69-.01-1.69-.01c.1-.49.16-1.03.17-1.6h1.93c-.02.58-.16,1.13-.41,1.61Z"/>
  </g>
</svg>