<?xml version="1.0" encoding="UTF-8"?>
<svg id="Capa_2" data-name="Capa 2" xmlns="http://www.w3.org/2000/svg" xmlns:xlink="http://www.w3.org/1999/xlink" viewBox="0 0 19.6 19.6">
  <defs>
    <style>
      .cls-1, .cls-2 {
        fill: #fff;
      }

      .cls-2 {
        fill-rule: evenodd;
      }

      .cls-3 {
        filter: url(#drop-shadow-1);
      }

      .cls-4 {
        fill: none;
        stroke: #b2dcd9;
        stroke-miterlimit: 10;
        stroke-width: .25px;
      }

      .cls-5 {
        fill: #4fb056;
      }
    </style>
    <filter id="drop-shadow-1" x="-6.21" y="-6.73" width="32" height="33" filterUnits="userSpaceOnUse">
      <feOffset dx="0" dy="0"/>
      <feGaussianBlur result="blur" stdDeviation="2"/>
      <feFlood flood-color="#000" flood-opacity=".15"/>
      <feComposite in2="blur" operator="in"/>
      <feComposite in="SourceGraphic"/>
    </filter>
  </defs>
  <g id="Capa_4" data-name="Capa 4">
    <g class="cls-3">
      <path class="cls-5" d="M9.8.12c5.34,0,9.68,4.33,9.68,9.68s-4.33,9.68-9.68,9.68S.12,15.14.12,9.8,4.46.12,9.8.12h0Z"/>
      <path class="cls-1" d="M7.37,13.52l.17.1c.69.41,1.47.63,2.28.63h0c2.47,0,4.49-2.01,4.49-4.49,0-1.19-.48-2.33-1.32-3.17-.84-.85-1.98-1.32-3.17-1.32-2.48,0-4.49,2.01-4.49,4.49,0,.85.23,1.67.68,2.38l.1.17-.45,1.66,1.7-.45h0ZM4.39,15.24l.76-2.79c-1.48-2.58-.6-5.88,1.98-7.37,2.58-1.48,5.89-.6,7.37,1.99,1.49,2.58.6,5.88-1.98,7.36-.82.47-1.75.72-2.69.72h0c-.9,0-1.79-.23-2.58-.66l-2.86.75h0Z"/>
      <path class="cls-2" d="M12.54,11.04c-.03-.06-.12-.09-.26-.15-.14-.07-.8-.39-.91-.45-.11-.05-.21-.06-.3.07-.09.14-.35.44-.43.53-.08.09-.16.1-.29.03-.4-.15-.77-.39-1.08-.67-.3-.27-.55-.59-.75-.93-.06-.09-.03-.21.05-.27,0,0,0,0,0,0,.06-.06.14-.15.21-.23.05-.07.1-.15.14-.23.03-.07.03-.16,0-.23-.04-.06-.3-.73-.42-1-.11-.26-.23-.23-.3-.23h-.26c-.14,0-.26.06-.36.17-.3.3-.48.7-.47,1.13,0,.66.48,1.3.55,1.39.07.09.96,1.45,2.3,2.03.25.11.51.21.77.28.27.08.56.1.85.05.26-.04.8-.32.91-.64.09-.21.11-.45.06-.66h0Z"/>
      <path class="cls-4" d="M9.8.12c5.34,0,9.68,4.33,9.68,9.68s-4.33,9.68-9.68,9.68S.12,15.14.12,9.8,4.46.12,9.8.12h0Z"/>
    </g>
  </g>
</svg>